<svg height="48" viewBox="0 0 64 64" width="48" xmlns="http://www.w3.org/2000/svg" xmlns:xlink="http://www.w3.org/1999/xlink"><clipPath id="a"><path d="m959.4 500-279.6 279.7 279.6 279.7h-319.5l-119.9-119.9-159.8-159.8 279.7-279.7zm-319.5-479.3-519.3 519.3 159.8 159.8 679-679.1h-319.5z" height="100%" width="100%"/></clipPath><clipPath id="b"><path d="m959.4 500-279.6 279.7 279.6 279.7h-319.5l-119.9-119.9-159.8-159.8 279.7-279.7zm-319.5-479.3-519.3 519.3 159.8 159.8 679-679.1h-319.5z" height="100%" width="100%"/></clipPath><clipPath id="c"><path d="m959.4 500-279.6 279.7 279.6 279.7h-319.5l-119.9-119.9-159.8-159.8 279.7-279.7zm-319.5-479.3-519.3 519.3 159.8 159.8 679-679.1h-319.5z" height="100%" width="100%"/></clipPath><clipPath id="d"><path d="m959.4 500-279.6 279.7 279.6 279.7h-319.5l-119.9-119.9-159.8-159.8 279.7-279.7zm-319.5-479.3-519.3 519.3 159.8 159.8 679-679.1h-319.5z" height="100%" width="100%"/></clipPath><linearGradient id="e" gradientTransform="matrix(.25 0 0 -.25 -1812 -622.5)" gradientUnits="userSpaceOnUse" x1="9514.54" x2="9990.5996" y1="-6371.355" y2="-5895.2949"><stop offset="0" stop-color="#1a237e" stop-opacity=".4"/><stop offset="1" stop-color="#1a237e" stop-opacity="0"/></linearGradient><clipPath id="f"><path d="m959.4 500-279.6 279.7 279.6 279.7h-319.5l-119.9-119.9-159.8-159.8 279.7-279.7zm-319.5-479.3-519.3 519.3 159.8 159.8 679-679.1h-319.5z" height="100%" width="100%"/></clipPath><radialGradient id="g" cx="7824.6587" cy="-2855.979" gradientTransform="matrix(.25 0 0 -.25 -1812 -622.5)" gradientUnits="userSpaceOnUse" r="5082.8887"><stop offset="0" stop-color="#fff" stop-opacity=".1"/><stop offset="1" stop-color="#fff" stop-opacity="0"/></radialGradient><g transform="matrix(.0616154 0 0 .06161548 -1.430818 -1.2754)"><g clip-path="url(#a)"><path d="m360.3 779.7 159.7 159.8 439.4-439.5h-319.5z" fill="#39cefd"/></g><path clip-path="url(#b)" d="m639.9 20.7h319.5l-679 679.1-159.8-159.8z" fill="#39cefd"/><path clip-path="url(#c)" d="m520 939.5 119.9 119.8h319.5l-279.6-279.6z" fill="#03569b"/><path clip-path="url(#d)" d="m757 857.4-77.2-77.7-159.8 159.8z" fill="url(#e)"/><g clip-path="url(#f)"><path d="m407.10001 666.70001h226v226h-226z" fill="#16b9fd" transform="matrix(.7071 -.7071 .7071 .7071 -399.0023 596.0814)"/></g><path d="m959.4 500-279.6 279.7 279.6 279.7h-319.5l-119.9-119.9-159.8-159.8 279.7-279.7zm-319.5-479.3-519.3 519.3 159.8 159.8 679-679.1h-319.5z" fill="url(#g)"/></g></svg>